<?xml version="1.0" encoding="iso-8859-1"?>
<!-- Generator: Adobe Illustrator 19.0.0, SVG Export Plug-In . SVG Version: 6.00 Build 0)  -->
<svg version="1.1" id="Capa_1" xmlns="http://www.w3.org/2000/svg" xmlns:xlink="http://www.w3.org/1999/xlink" x="0px" y="0px"
	 viewBox="0 0 512.002 512.002" style="enable-background:new 0 0 512.002 512.002;" xml:space="preserve">
<path style="fill:#EA3836;" d="M157.014,477.264c-3.774,14.938,5.273,30.106,20.203,33.881c14.577,3.686,29.454-4.85,33.634-19.295
	l45.151-165.567l45.151,165.567c4.277,14.797,19.745,23.325,34.542,19.048c14.445-4.18,22.981-19.057,19.295-33.634l-54.895-203.892
	h-88.185L157.014,477.264z"/>
<g>
	<polygon style="fill:#FFD33F;" points="423.552,52.911 388.278,52.911 380.341,79.366 419.769,79.366 	"/>
	<polygon style="fill:#FFD33F;" points="123.724,52.911 88.45,52.911 93.741,79.366 131.661,79.366 	"/>
</g>
<path style="fill:#91CECE;" d="M380.341,79.366l-18.519,61.729H317.73l-61.729,26.455l-61.729-26.455h-44.092l-18.519-61.729H93.741
	l10.856,85.319c0.899,7.072,5.979,12.91,12.857,14.789l85.636,23.351l8.818,70.548h88.185l8.818-70.548l85.821-23.404
	c6.79-1.852,11.826-7.549,12.822-14.515l12.214-85.539H380.341z"/>
<g>
	<path style="fill:#383856;" d="M61.995,0L61.995,0c9.744,0,17.637,7.893,17.637,17.637v35.274c0,9.744-7.893,17.637-17.637,17.637
		l0,0c-9.744,0-17.637-7.893-17.637-17.637V17.637C44.358,7.893,52.25,0,61.995,0z"/>
	<path style="fill:#383856;" d="M150.179,0L150.179,0c9.744,0,17.637,7.893,17.637,17.637v35.274
		c0,9.744-7.893,17.637-17.637,17.637l0,0c-9.744,0-17.637-7.893-17.637-17.637V17.637C132.542,7.893,140.435,0,150.179,0z"/>
</g>
<rect x="79.632" y="17.637" style="fill:#EA3836;" width="52.911" height="35.274"/>
<g>
	<path style="fill:#383856;" d="M361.822,0L361.822,0c9.744,0,17.637,7.893,17.637,17.637v35.274
		c0,9.744-7.893,17.637-17.637,17.637l0,0c-9.744,0-17.637-7.893-17.637-17.637V17.637C344.185,7.893,352.078,0,361.822,0z"/>
	<path style="fill:#383856;" d="M450.007,0L450.007,0c9.744,0,17.637,7.893,17.637,17.637v35.274
		c0,9.744-7.893,17.637-17.637,17.637l0,0c-9.744,0-17.637-7.893-17.637-17.637V17.637C432.37,7.893,440.263,0,450.007,0z"/>
</g>
<rect x="379.459" y="17.637" style="fill:#EA3836;" width="52.911" height="35.274"/>
<path style="fill:#383856;" d="M251.592,52.911h39.683v26.455c-28.113,0.009-55.08,11.129-75.019,30.944
	c-2.822-5.485-4.312-11.552-4.348-17.716C211.909,70.68,229.678,52.911,251.592,52.911z"/>
<path style="fill:#FFD33F;" d="M291.275,92.594c0.053,21.861-17.619,39.621-39.471,39.683c-15.062,0.035-28.836-8.475-35.547-21.967
	c19.939-19.815,46.905-30.935,75.019-30.944V92.594z"/>
<path style="fill:#FFAC3E;" d="M282.456,79.798v3.977c0,21.914-17.769,39.683-39.683,39.683c-8.316-0.009-16.411-2.69-23.096-7.637
	c12.725,17.725,37.408,21.773,55.133,9.048c10.388-7.46,16.526-19.489,16.464-32.276V79.366
	C288.321,79.366,285.384,79.56,282.456,79.798z"/>
<path style="fill:#202033;" d="M291.275,52.911c0.388,9.736-2.743,19.277-8.818,26.887c2.928-0.238,5.864-0.432,8.818-0.432V52.911z
	"/>
<polygon style="fill:#FFD33F;" points="97.269,52.911 88.45,52.911 93.741,79.366 103.371,79.366 "/>
<g>
	<path style="fill:#83B2B7;" d="M114.905,167.551L93.741,79.366l10.856,85.319c0.899,7.072,5.979,12.91,12.857,14.789l85.636,23.351
		l-26.455-17.637L114.905,167.551z"/>
	<path style="fill:#83B2B7;" d="M397.096,167.551l-61.729,17.637l-26.455,17.637l85.821-23.404
		c6.79-1.852,11.826-7.549,12.822-14.515l12.214-85.539L397.096,167.551z"/>
</g>
<g>
	<path style="fill:#202033;" d="M61.995,61.729c-9.744,0-17.637-7.893-17.637-17.637v8.818c0,9.744,7.893,17.637,17.637,17.637
		s17.637-7.893,17.637-17.637v-8.818C79.632,53.837,71.739,61.729,61.995,61.729z"/>
	<path style="fill:#202033;" d="M150.179,61.729c-9.744,0-17.637-7.893-17.637-17.637v8.818c0,9.744,7.893,17.637,17.637,17.637
		s17.637-7.893,17.637-17.637v-8.818C167.816,53.837,159.924,61.729,150.179,61.729z"/>
	<path style="fill:#202033;" d="M361.822,61.729c-9.744,0-17.637-7.893-17.637-17.637v8.818c0,9.744,7.893,17.637,17.637,17.637
		c9.744,0,17.637-7.893,17.637-17.637v-8.818C379.459,53.837,371.567,61.729,361.822,61.729z"/>
	<path style="fill:#202033;" d="M450.007,61.729c-9.744,0-17.637-7.893-17.637-17.637v8.818c0,9.744,7.893,17.637,17.637,17.637
		c9.744,0,17.637-7.893,17.637-17.637v-8.818C467.644,53.837,459.751,61.729,450.007,61.729z"/>
</g>
<g>
	<rect x="79.632" y="44.092" style="fill:#D62121;" width="52.911" height="8.818"/>
	<rect x="379.459" y="44.092" style="fill:#D62121;" width="52.911" height="8.818"/>
	<path style="fill:#D62121;" d="M157.014,477.264c-3.774,14.938,5.273,30.106,20.203,33.881c14.577,3.686,29.454-4.85,33.634-19.295
		l17.787-65.257c-23.387,11.535-46.447,21.491-65.883,29.321L157.014,477.264z"/>
	<path style="fill:#D62121;" d="M324.891,365.472c-15.071,13.219-31.35,25.009-48.607,35.203l24.868,91.174
		c4.277,14.797,19.745,23.325,34.542,19.048c14.445-4.18,22.981-19.057,19.295-33.634L324.891,365.472z"/>
</g>
<g>
</g>
<g>
</g>
<g>
</g>
<g>
</g>
<g>
</g>
<g>
</g>
<g>
</g>
<g>
</g>
<g>
</g>
<g>
</g>
<g>
</g>
<g>
</g>
<g>
</g>
<g>
</g>
<g>
</g>
</svg>
